<mxfile host="app.diagrams.net" modified="2024-01-26T16:29:33.598Z" agent="Mozilla/5.0 (Macintosh; Intel Mac OS X 10_15_7) AppleWebKit/537.36 (KHTML, like Gecko) Chrome/121.0.0.0 Safari/537.36" etag="wJITu8-WdSrjucytt2hZ" version="22.1.20" type="device">
  <diagram name="Page-1" id="Zwbs9HdD9xWXN32vPZYO">
    <mxGraphModel dx="2304" dy="530" grid="1" gridSize="10" guides="1" tooltips="1" connect="1" arrows="1" fold="1" page="1" pageScale="1" pageWidth="827" pageHeight="1169" background="#FFFFFF" math="0" shadow="0">
      <root>
        <mxCell id="0" />
        <mxCell id="1" parent="0" />
        <mxCell id="r3JPUnc0IrMoOJ5R_WF7-2" value="" style="endArrow=classic;html=1;rounded=0;" parent="1" edge="1">
          <mxGeometry width="50" height="50" relative="1" as="geometry">
            <mxPoint x="-255" y="169.5" as="sourcePoint" />
            <mxPoint x="-205" y="169.5" as="targetPoint" />
          </mxGeometry>
        </mxCell>
        <mxCell id="r3JPUnc0IrMoOJ5R_WF7-7" value="" style="endArrow=classic;html=1;rounded=0;" parent="1" edge="1">
          <mxGeometry width="50" height="50" relative="1" as="geometry">
            <mxPoint x="-120" y="155" as="sourcePoint" />
            <mxPoint x="-80" y="155" as="targetPoint" />
          </mxGeometry>
        </mxCell>
        <mxCell id="r3JPUnc0IrMoOJ5R_WF7-10" value="" style="endArrow=classic;html=1;rounded=0;" parent="1" edge="1">
          <mxGeometry width="50" height="50" relative="1" as="geometry">
            <mxPoint x="-120" y="185" as="sourcePoint" />
            <mxPoint x="-80" y="185" as="targetPoint" />
          </mxGeometry>
        </mxCell>
        <mxCell id="r3JPUnc0IrMoOJ5R_WF7-15" value="&lt;span style=&quot;font-size: 14px;&quot;&gt;GPT2 + Modular Arithmetic&lt;/span&gt;" style="text;strokeColor=none;fillColor=none;html=1;fontSize=24;fontStyle=1;verticalAlign=middle;align=center;" parent="1" vertex="1">
          <mxGeometry x="45" y="70" width="380" height="40" as="geometry" />
        </mxCell>
        <mxCell id="r3JPUnc0IrMoOJ5R_WF7-19" value="add_embed" style="rounded=1;whiteSpace=wrap;html=1;" parent="1" vertex="1">
          <mxGeometry x="50" y="140" width="90" height="60" as="geometry" />
        </mxCell>
        <mxCell id="r3JPUnc0IrMoOJ5R_WF7-20" value="" style="endArrow=classic;html=1;rounded=0;" parent="1" edge="1">
          <mxGeometry width="50" height="50" relative="1" as="geometry">
            <mxPoint x="10" y="185" as="sourcePoint" />
            <mxPoint x="50" y="185" as="targetPoint" />
          </mxGeometry>
        </mxCell>
        <mxCell id="r3JPUnc0IrMoOJ5R_WF7-22" value="token_idxs" style="text;html=1;strokeColor=none;fillColor=none;align=center;verticalAlign=middle;whiteSpace=wrap;rounded=0;" parent="1" vertex="1">
          <mxGeometry x="-320" y="155" width="60" height="30" as="geometry" />
        </mxCell>
        <mxCell id="r3JPUnc0IrMoOJ5R_WF7-23" value="ln1_out" style="rounded=1;whiteSpace=wrap;html=1;" parent="1" vertex="1">
          <mxGeometry x="310" y="140" width="90" height="60" as="geometry" />
        </mxCell>
        <mxCell id="r3JPUnc0IrMoOJ5R_WF7-24" value="attn_in" style="rounded=1;whiteSpace=wrap;html=1;" parent="1" vertex="1">
          <mxGeometry x="440" y="140" width="90" height="60" as="geometry" />
        </mxCell>
        <mxCell id="r3JPUnc0IrMoOJ5R_WF7-29" value="embed" style="rounded=1;whiteSpace=wrap;html=1;" parent="1" vertex="1">
          <mxGeometry x="-205" y="140" width="90" height="60" as="geometry" />
        </mxCell>
        <mxCell id="r3JPUnc0IrMoOJ5R_WF7-33" value="mlp_in" style="rounded=1;whiteSpace=wrap;html=1;" parent="1" vertex="1">
          <mxGeometry x="55" y="235" width="90" height="60" as="geometry" />
        </mxCell>
        <mxCell id="r3JPUnc0IrMoOJ5R_WF7-34" value="add_resid2" style="rounded=1;whiteSpace=wrap;html=1;" parent="1" vertex="1">
          <mxGeometry x="445" y="235" width="90" height="60" as="geometry" />
        </mxCell>
        <mxCell id="r3JPUnc0IrMoOJ5R_WF7-35" value="mlp_act" style="rounded=1;whiteSpace=wrap;html=1;" parent="1" vertex="1">
          <mxGeometry x="185" y="235" width="90" height="60" as="geometry" />
        </mxCell>
        <mxCell id="r3JPUnc0IrMoOJ5R_WF7-36" value="mlp_out" style="rounded=1;whiteSpace=wrap;html=1;" parent="1" vertex="1">
          <mxGeometry x="315" y="235" width="90" height="60" as="geometry" />
        </mxCell>
        <mxCell id="r3JPUnc0IrMoOJ5R_WF7-37" value="ln_final" style="rounded=1;whiteSpace=wrap;html=1;" parent="1" vertex="1">
          <mxGeometry x="-45" y="340" width="90" height="60" as="geometry" />
        </mxCell>
        <mxCell id="r3JPUnc0IrMoOJ5R_WF7-38" value="unembed" style="rounded=1;whiteSpace=wrap;html=1;" parent="1" vertex="1">
          <mxGeometry x="200" y="340" width="90" height="60" as="geometry" />
        </mxCell>
        <mxCell id="r3JPUnc0IrMoOJ5R_WF7-39" value="" style="endArrow=classic;html=1;rounded=0;fillColor=#f8cecc;strokeColor=#b85450;" parent="1" edge="1">
          <mxGeometry width="50" height="50" relative="1" as="geometry">
            <mxPoint x="140" y="169.5" as="sourcePoint" />
            <mxPoint x="180" y="169.5" as="targetPoint" />
          </mxGeometry>
        </mxCell>
        <mxCell id="r3JPUnc0IrMoOJ5R_WF7-42" value="" style="endArrow=classic;html=1;rounded=0;fillColor=#f8cecc;strokeColor=#b85450;" parent="1" edge="1">
          <mxGeometry width="50" height="50" relative="1" as="geometry">
            <mxPoint x="400" y="190" as="sourcePoint" />
            <mxPoint x="440" y="190" as="targetPoint" />
          </mxGeometry>
        </mxCell>
        <mxCell id="r3JPUnc0IrMoOJ5R_WF7-44" value="" style="endArrow=classic;html=1;rounded=0;fillColor=#f8cecc;strokeColor=#0D0D0D;" parent="1" edge="1">
          <mxGeometry width="50" height="50" relative="1" as="geometry">
            <mxPoint x="145" y="245" as="sourcePoint" />
            <mxPoint x="185" y="245" as="targetPoint" />
          </mxGeometry>
        </mxCell>
        <mxCell id="r3JPUnc0IrMoOJ5R_WF7-45" value="" style="endArrow=classic;html=1;rounded=0;fillColor=#f8cecc;strokeColor=#0D0D0D;" parent="1" edge="1">
          <mxGeometry width="50" height="50" relative="1" as="geometry">
            <mxPoint x="275" y="245" as="sourcePoint" />
            <mxPoint x="315" y="245" as="targetPoint" />
          </mxGeometry>
        </mxCell>
        <mxCell id="r3JPUnc0IrMoOJ5R_WF7-46" value="" style="endArrow=classic;html=1;rounded=0;fillColor=#f8cecc;strokeColor=#0D0D0D;" parent="1" edge="1">
          <mxGeometry width="50" height="50" relative="1" as="geometry">
            <mxPoint x="405" y="245" as="sourcePoint" />
            <mxPoint x="445" y="245" as="targetPoint" />
          </mxGeometry>
        </mxCell>
        <mxCell id="r3JPUnc0IrMoOJ5R_WF7-47" value="" style="endArrow=classic;html=1;rounded=0;fillColor=#f8cecc;strokeColor=#b85450;" parent="1" edge="1">
          <mxGeometry width="50" height="50" relative="1" as="geometry">
            <mxPoint x="405" y="285" as="sourcePoint" />
            <mxPoint x="445" y="285" as="targetPoint" />
          </mxGeometry>
        </mxCell>
        <mxCell id="r3JPUnc0IrMoOJ5R_WF7-49" value="" style="endArrow=classic;html=1;rounded=0;fillColor=#f8cecc;strokeColor=#b85450;" parent="1" edge="1">
          <mxGeometry width="50" height="50" relative="1" as="geometry">
            <mxPoint x="145" y="285" as="sourcePoint" />
            <mxPoint x="185" y="285" as="targetPoint" />
          </mxGeometry>
        </mxCell>
        <mxCell id="r3JPUnc0IrMoOJ5R_WF7-50" value="" style="endArrow=classic;html=1;rounded=0;fillColor=#f8cecc;strokeColor=#b85450;" parent="1" edge="1">
          <mxGeometry width="50" height="50" relative="1" as="geometry">
            <mxPoint x="275" y="285" as="sourcePoint" />
            <mxPoint x="315" y="285" as="targetPoint" />
          </mxGeometry>
        </mxCell>
        <mxCell id="r3JPUnc0IrMoOJ5R_WF7-51" value="" style="endArrow=classic;html=1;rounded=0;exitX=1;exitY=0.5;exitDx=0;exitDy=0;fillColor=#f8cecc;strokeColor=#b85450;entryX=0;entryY=0.5;entryDx=0;entryDy=0;" parent="1" edge="1">
          <mxGeometry width="50" height="50" relative="1" as="geometry">
            <mxPoint x="45" y="380" as="sourcePoint" />
            <mxPoint x="75" y="380" as="targetPoint" />
          </mxGeometry>
        </mxCell>
        <mxCell id="r3JPUnc0IrMoOJ5R_WF7-56" value="" style="endArrow=classic;html=1;rounded=0;fillColor=#f8cecc;strokeColor=#b85450;" parent="1" edge="1">
          <mxGeometry width="50" height="50" relative="1" as="geometry">
            <mxPoint x="790" y="169" as="sourcePoint" />
            <mxPoint x="840" y="169" as="targetPoint" />
          </mxGeometry>
        </mxCell>
        <mxCell id="r3JPUnc0IrMoOJ5R_WF7-58" value="" style="endArrow=classic;html=1;rounded=0;fillColor=#f8cecc;strokeColor=#b85450;exitX=0.993;exitY=0.833;exitDx=0;exitDy=0;exitPerimeter=0;" parent="1" edge="1" source="dL9lyLk3jGsbPo3Z24HX-6">
          <mxGeometry width="50" height="50" relative="1" as="geometry">
            <mxPoint x="-125" y="284.67" as="sourcePoint" />
            <mxPoint x="-75" y="284.67" as="targetPoint" />
          </mxGeometry>
        </mxCell>
        <mxCell id="r3JPUnc0IrMoOJ5R_WF7-59" value="" style="endArrow=classic;html=1;rounded=0;fillColor=#f8cecc;strokeColor=#b85450;" parent="1" edge="1">
          <mxGeometry width="50" height="50" relative="1" as="geometry">
            <mxPoint x="535" y="264.5" as="sourcePoint" />
            <mxPoint x="565" y="265" as="targetPoint" />
          </mxGeometry>
        </mxCell>
        <mxCell id="r3JPUnc0IrMoOJ5R_WF7-64" value="add_resid1" style="rounded=1;whiteSpace=wrap;html=1;" parent="1" vertex="1">
          <mxGeometry x="700" y="140" width="90" height="60" as="geometry" />
        </mxCell>
        <mxCell id="r3JPUnc0IrMoOJ5R_WF7-65" value="" style="endArrow=classic;html=1;rounded=0;fillColor=#f8cecc;strokeColor=#0D0D0D;" parent="1" edge="1">
          <mxGeometry width="50" height="50" relative="1" as="geometry">
            <mxPoint x="660" y="155" as="sourcePoint" />
            <mxPoint x="700" y="155" as="targetPoint" />
          </mxGeometry>
        </mxCell>
        <mxCell id="r3JPUnc0IrMoOJ5R_WF7-66" value="" style="endArrow=classic;html=1;rounded=0;fillColor=#f8cecc;strokeColor=#b85450;" parent="1" edge="1">
          <mxGeometry width="50" height="50" relative="1" as="geometry">
            <mxPoint x="660" y="189" as="sourcePoint" />
            <mxPoint x="700" y="189" as="targetPoint" />
          </mxGeometry>
        </mxCell>
        <mxCell id="r3JPUnc0IrMoOJ5R_WF7-67" value="" style="endArrow=classic;html=1;rounded=0;" parent="1" edge="1">
          <mxGeometry width="50" height="50" relative="1" as="geometry">
            <mxPoint x="10" y="155" as="sourcePoint" />
            <mxPoint x="50" y="155" as="targetPoint" />
          </mxGeometry>
        </mxCell>
        <mxCell id="r3JPUnc0IrMoOJ5R_WF7-68" value="pos_embed" style="rounded=1;whiteSpace=wrap;html=1;" parent="1" vertex="1">
          <mxGeometry x="-80" y="140" width="90" height="60" as="geometry" />
        </mxCell>
        <mxCell id="r3JPUnc0IrMoOJ5R_WF7-69" value="ln2_out" style="rounded=1;whiteSpace=wrap;html=1;" parent="1" vertex="1">
          <mxGeometry x="-75" y="235" width="90" height="60" as="geometry" />
        </mxCell>
        <mxCell id="r3JPUnc0IrMoOJ5R_WF7-70" value="" style="endArrow=classic;html=1;rounded=0;fillColor=#f8cecc;strokeColor=#0D0D0D;" parent="1" edge="1">
          <mxGeometry width="50" height="50" relative="1" as="geometry">
            <mxPoint x="15" y="245" as="sourcePoint" />
            <mxPoint x="55" y="245" as="targetPoint" />
          </mxGeometry>
        </mxCell>
        <mxCell id="r3JPUnc0IrMoOJ5R_WF7-71" value="" style="endArrow=classic;html=1;rounded=0;fillColor=#f8cecc;strokeColor=#b85450;" parent="1" edge="1">
          <mxGeometry width="50" height="50" relative="1" as="geometry">
            <mxPoint x="15" y="285" as="sourcePoint" />
            <mxPoint x="55" y="285" as="targetPoint" />
          </mxGeometry>
        </mxCell>
        <mxCell id="r3JPUnc0IrMoOJ5R_WF7-72" value="&lt;font style=&quot;font-size: 11px;&quot;&gt;token_idxs&lt;/font&gt;" style="text;html=1;strokeColor=none;fillColor=none;align=center;verticalAlign=middle;whiteSpace=wrap;rounded=0;" parent="1" vertex="1">
          <mxGeometry x="-130" y="110" width="60" height="30" as="geometry" />
        </mxCell>
        <mxCell id="r3JPUnc0IrMoOJ5R_WF7-75" value="&lt;font style=&quot;font-size: 11px;&quot;&gt;token_emb&lt;/font&gt;" style="text;html=1;strokeColor=none;fillColor=none;align=center;verticalAlign=middle;whiteSpace=wrap;rounded=0;" parent="1" vertex="1">
          <mxGeometry x="-130" y="190" width="60" height="30" as="geometry" />
        </mxCell>
        <mxCell id="r3JPUnc0IrMoOJ5R_WF7-76" value="&lt;font style=&quot;font-size: 11px;&quot;&gt;pos_emb&lt;/font&gt;" style="text;html=1;strokeColor=none;fillColor=none;align=center;verticalAlign=middle;whiteSpace=wrap;rounded=0;" parent="1" vertex="1">
          <mxGeometry y="120" width="60" height="30" as="geometry" />
        </mxCell>
        <mxCell id="r3JPUnc0IrMoOJ5R_WF7-77" value="&lt;font style=&quot;font-size: 11px;&quot;&gt;token_emb&lt;/font&gt;" style="text;html=1;strokeColor=none;fillColor=none;align=center;verticalAlign=middle;whiteSpace=wrap;rounded=0;" parent="1" vertex="1">
          <mxGeometry y="190" width="60" height="30" as="geometry" />
        </mxCell>
        <mxCell id="r3JPUnc0IrMoOJ5R_WF7-79" value="" style="endArrow=classic;html=1;rounded=0;fillColor=#f8cecc;strokeColor=#b85450;" parent="1" target="r3JPUnc0IrMoOJ5R_WF7-81" edge="1">
          <mxGeometry width="50" height="50" relative="1" as="geometry">
            <mxPoint x="-60" y="95" as="sourcePoint" />
            <mxPoint x="-110" y="80" as="targetPoint" />
          </mxGeometry>
        </mxCell>
        <mxCell id="r3JPUnc0IrMoOJ5R_WF7-81" value="= residual stream" style="text;html=1;strokeColor=none;fillColor=none;align=center;verticalAlign=middle;whiteSpace=wrap;rounded=0;" parent="1" vertex="1">
          <mxGeometry x="15" y="80" width="100" height="30" as="geometry" />
        </mxCell>
        <mxCell id="r3JPUnc0IrMoOJ5R_WF7-82" value="" style="endArrow=classic;html=1;rounded=0;" parent="1" edge="1">
          <mxGeometry width="50" height="50" relative="1" as="geometry">
            <mxPoint x="-255" y="529.5" as="sourcePoint" />
            <mxPoint x="-205" y="529.5" as="targetPoint" />
          </mxGeometry>
        </mxCell>
        <mxCell id="r3JPUnc0IrMoOJ5R_WF7-85" value="&lt;span style=&quot;font-size: 14px;&quot;&gt;Pythia&lt;/span&gt;" style="text;strokeColor=none;fillColor=none;html=1;fontSize=24;fontStyle=1;verticalAlign=middle;align=center;" parent="1" vertex="1">
          <mxGeometry x="35" y="430" width="380" height="40" as="geometry" />
        </mxCell>
        <mxCell id="r3JPUnc0IrMoOJ5R_WF7-88" value="token_idxs" style="text;html=1;strokeColor=none;fillColor=none;align=center;verticalAlign=middle;whiteSpace=wrap;rounded=0;" parent="1" vertex="1">
          <mxGeometry x="-320" y="515" width="60" height="30" as="geometry" />
        </mxCell>
        <mxCell id="r3JPUnc0IrMoOJ5R_WF7-89" value="ln1_out" style="rounded=1;whiteSpace=wrap;html=1;" parent="1" vertex="1">
          <mxGeometry x="60" y="497.5" width="90" height="60" as="geometry" />
        </mxCell>
        <mxCell id="r3JPUnc0IrMoOJ5R_WF7-90" value="attn_in" style="rounded=1;whiteSpace=wrap;html=1;" parent="1" vertex="1">
          <mxGeometry x="190" y="497.5" width="90" height="60" as="geometry" />
        </mxCell>
        <mxCell id="r3JPUnc0IrMoOJ5R_WF7-91" value="embed" style="rounded=1;whiteSpace=wrap;html=1;" parent="1" vertex="1">
          <mxGeometry x="-205" y="500" width="90" height="60" as="geometry" />
        </mxCell>
        <mxCell id="r3JPUnc0IrMoOJ5R_WF7-92" value="mlp_in" style="rounded=1;whiteSpace=wrap;html=1;" parent="1" vertex="1">
          <mxGeometry x="60" y="600" width="90" height="60" as="geometry" />
        </mxCell>
        <mxCell id="r3JPUnc0IrMoOJ5R_WF7-93" value="add_resid2" style="rounded=1;whiteSpace=wrap;html=1;" parent="1" vertex="1">
          <mxGeometry x="450" y="600" width="90" height="60" as="geometry" />
        </mxCell>
        <mxCell id="r3JPUnc0IrMoOJ5R_WF7-94" value="mlp_act" style="rounded=1;whiteSpace=wrap;html=1;" parent="1" vertex="1">
          <mxGeometry x="190" y="600" width="90" height="60" as="geometry" />
        </mxCell>
        <mxCell id="r3JPUnc0IrMoOJ5R_WF7-95" value="mlp_out" style="rounded=1;whiteSpace=wrap;html=1;" parent="1" vertex="1">
          <mxGeometry x="320" y="600" width="90" height="60" as="geometry" />
        </mxCell>
        <mxCell id="r3JPUnc0IrMoOJ5R_WF7-96" value="ln_final" style="rounded=1;whiteSpace=wrap;html=1;" parent="1" vertex="1">
          <mxGeometry x="-205" y="700" width="90" height="60" as="geometry" />
        </mxCell>
        <mxCell id="r3JPUnc0IrMoOJ5R_WF7-97" value="unembed" style="rounded=1;whiteSpace=wrap;html=1;" parent="1" vertex="1">
          <mxGeometry x="60" y="700" width="90" height="60" as="geometry" />
        </mxCell>
        <mxCell id="r3JPUnc0IrMoOJ5R_WF7-98" value="" style="endArrow=classic;html=1;rounded=0;fillColor=#f8cecc;strokeColor=#b85450;exitX=1;exitY=0.5;exitDx=0;exitDy=0;" parent="1" source="r3JPUnc0IrMoOJ5R_WF7-91" edge="1">
          <mxGeometry width="50" height="50" relative="1" as="geometry">
            <mxPoint x="-110" y="530" as="sourcePoint" />
            <mxPoint x="-70" y="529.5" as="targetPoint" />
          </mxGeometry>
        </mxCell>
        <mxCell id="r3JPUnc0IrMoOJ5R_WF7-99" value="" style="endArrow=classic;html=1;rounded=0;fillColor=#f8cecc;strokeColor=#0D0D0D;" parent="1" edge="1">
          <mxGeometry width="50" height="50" relative="1" as="geometry">
            <mxPoint x="150" y="512.5" as="sourcePoint" />
            <mxPoint x="190" y="512.5" as="targetPoint" />
          </mxGeometry>
        </mxCell>
        <mxCell id="r3JPUnc0IrMoOJ5R_WF7-100" value="" style="endArrow=classic;html=1;rounded=0;fillColor=#f8cecc;strokeColor=#b85450;" parent="1" edge="1">
          <mxGeometry width="50" height="50" relative="1" as="geometry">
            <mxPoint x="150" y="547.5" as="sourcePoint" />
            <mxPoint x="190" y="547.5" as="targetPoint" />
          </mxGeometry>
        </mxCell>
        <mxCell id="r3JPUnc0IrMoOJ5R_WF7-101" value="" style="endArrow=classic;html=1;rounded=0;fillColor=#f8cecc;strokeColor=#0D0D0D;" parent="1" edge="1">
          <mxGeometry width="50" height="50" relative="1" as="geometry">
            <mxPoint x="150" y="610" as="sourcePoint" />
            <mxPoint x="190" y="610" as="targetPoint" />
          </mxGeometry>
        </mxCell>
        <mxCell id="r3JPUnc0IrMoOJ5R_WF7-102" value="" style="endArrow=classic;html=1;rounded=0;fillColor=#f8cecc;strokeColor=#0D0D0D;" parent="1" edge="1">
          <mxGeometry width="50" height="50" relative="1" as="geometry">
            <mxPoint x="280" y="610" as="sourcePoint" />
            <mxPoint x="320" y="610" as="targetPoint" />
          </mxGeometry>
        </mxCell>
        <mxCell id="r3JPUnc0IrMoOJ5R_WF7-103" value="" style="endArrow=classic;html=1;rounded=0;fillColor=#f8cecc;strokeColor=#0D0D0D;" parent="1" edge="1">
          <mxGeometry width="50" height="50" relative="1" as="geometry">
            <mxPoint x="410" y="610" as="sourcePoint" />
            <mxPoint x="450" y="610" as="targetPoint" />
          </mxGeometry>
        </mxCell>
        <mxCell id="r3JPUnc0IrMoOJ5R_WF7-104" value="" style="endArrow=classic;html=1;rounded=0;fillColor=#f8cecc;strokeColor=#b85450;" parent="1" edge="1">
          <mxGeometry width="50" height="50" relative="1" as="geometry">
            <mxPoint x="410" y="650" as="sourcePoint" />
            <mxPoint x="450" y="650" as="targetPoint" />
          </mxGeometry>
        </mxCell>
        <mxCell id="r3JPUnc0IrMoOJ5R_WF7-105" value="" style="endArrow=classic;html=1;rounded=0;fillColor=#f8cecc;strokeColor=#b85450;" parent="1" edge="1">
          <mxGeometry width="50" height="50" relative="1" as="geometry">
            <mxPoint x="150" y="650" as="sourcePoint" />
            <mxPoint x="190" y="650" as="targetPoint" />
          </mxGeometry>
        </mxCell>
        <mxCell id="r3JPUnc0IrMoOJ5R_WF7-106" value="" style="endArrow=classic;html=1;rounded=0;fillColor=#f8cecc;strokeColor=#b85450;" parent="1" edge="1">
          <mxGeometry width="50" height="50" relative="1" as="geometry">
            <mxPoint x="280" y="650" as="sourcePoint" />
            <mxPoint x="320" y="650" as="targetPoint" />
          </mxGeometry>
        </mxCell>
        <mxCell id="r3JPUnc0IrMoOJ5R_WF7-108" value="" style="endArrow=classic;html=1;rounded=0;fillColor=#f8cecc;strokeColor=#0D0D0D;" parent="1" edge="1">
          <mxGeometry width="50" height="50" relative="1" as="geometry">
            <mxPoint x="540" y="512.5" as="sourcePoint" />
            <mxPoint x="590" y="512.5" as="targetPoint" />
          </mxGeometry>
        </mxCell>
        <mxCell id="r3JPUnc0IrMoOJ5R_WF7-109" value="" style="endArrow=classic;html=1;rounded=0;fillColor=#f8cecc;strokeColor=#b85450;" parent="1" source="r3JPUnc0IrMoOJ5R_WF7-168" edge="1">
          <mxGeometry width="50" height="50" relative="1" as="geometry">
            <mxPoint x="-255" y="730" as="sourcePoint" />
            <mxPoint x="-205" y="730" as="targetPoint" />
          </mxGeometry>
        </mxCell>
        <mxCell id="r3JPUnc0IrMoOJ5R_WF7-110" value="" style="endArrow=classic;html=1;rounded=0;fillColor=#f8cecc;strokeColor=#b85450;entryX=0;entryY=0.5;entryDx=0;entryDy=0;" parent="1" target="r3JPUnc0IrMoOJ5R_WF7-146" edge="1">
          <mxGeometry width="50" height="50" relative="1" as="geometry">
            <mxPoint x="540" y="629.5" as="sourcePoint" />
            <mxPoint x="590" y="629.5" as="targetPoint" />
          </mxGeometry>
        </mxCell>
        <mxCell id="r3JPUnc0IrMoOJ5R_WF7-111" value="add_resid1" style="rounded=1;whiteSpace=wrap;html=1;" parent="1" vertex="1">
          <mxGeometry x="450" y="497.5" width="90" height="60" as="geometry" />
        </mxCell>
        <mxCell id="r3JPUnc0IrMoOJ5R_WF7-112" value="" style="endArrow=classic;html=1;rounded=0;fillColor=#f8cecc;strokeColor=#0D0D0D;" parent="1" edge="1">
          <mxGeometry width="50" height="50" relative="1" as="geometry">
            <mxPoint x="410" y="512.5" as="sourcePoint" />
            <mxPoint x="450" y="512.5" as="targetPoint" />
          </mxGeometry>
        </mxCell>
        <mxCell id="r3JPUnc0IrMoOJ5R_WF7-113" value="" style="endArrow=classic;html=1;rounded=0;fillColor=#f8cecc;strokeColor=#b85450;" parent="1" edge="1">
          <mxGeometry width="50" height="50" relative="1" as="geometry">
            <mxPoint x="410" y="547.5" as="sourcePoint" />
            <mxPoint x="450" y="547.5" as="targetPoint" />
          </mxGeometry>
        </mxCell>
        <mxCell id="r3JPUnc0IrMoOJ5R_WF7-116" value="ln2" style="rounded=1;whiteSpace=wrap;html=1;" parent="1" vertex="1">
          <mxGeometry x="-210" y="600" width="90" height="60" as="geometry" />
        </mxCell>
        <mxCell id="r3JPUnc0IrMoOJ5R_WF7-117" value="" style="endArrow=classic;html=1;rounded=0;fillColor=#f8cecc;strokeColor=#0D0D0D;" parent="1" edge="1">
          <mxGeometry width="50" height="50" relative="1" as="geometry">
            <mxPoint x="20" y="610" as="sourcePoint" />
            <mxPoint x="60" y="610" as="targetPoint" />
          </mxGeometry>
        </mxCell>
        <mxCell id="r3JPUnc0IrMoOJ5R_WF7-118" value="" style="endArrow=classic;html=1;rounded=0;fillColor=#f8cecc;strokeColor=#b85450;" parent="1" edge="1">
          <mxGeometry width="50" height="50" relative="1" as="geometry">
            <mxPoint x="20" y="650" as="sourcePoint" />
            <mxPoint x="60" y="650" as="targetPoint" />
          </mxGeometry>
        </mxCell>
        <mxCell id="r3JPUnc0IrMoOJ5R_WF7-123" value="" style="endArrow=classic;html=1;rounded=0;fillColor=#f8cecc;strokeColor=#0D0D0D;" parent="1" edge="1">
          <mxGeometry width="50" height="50" relative="1" as="geometry">
            <mxPoint x="-260" y="610" as="sourcePoint" />
            <mxPoint x="-210" y="610" as="targetPoint" />
          </mxGeometry>
        </mxCell>
        <mxCell id="r3JPUnc0IrMoOJ5R_WF7-124" value="" style="endArrow=classic;html=1;rounded=0;fillColor=#f8cecc;strokeColor=#b85450;" parent="1" edge="1">
          <mxGeometry width="50" height="50" relative="1" as="geometry">
            <mxPoint x="540" y="547.5" as="sourcePoint" />
            <mxPoint x="590" y="547.5" as="targetPoint" />
          </mxGeometry>
        </mxCell>
        <mxCell id="r3JPUnc0IrMoOJ5R_WF7-125" value="attn+resid" style="text;html=1;strokeColor=none;fillColor=none;align=center;verticalAlign=middle;whiteSpace=wrap;rounded=0;" parent="1" vertex="1">
          <mxGeometry x="540" y="482.5" width="60" height="30" as="geometry" />
        </mxCell>
        <mxCell id="r3JPUnc0IrMoOJ5R_WF7-126" value="" style="endArrow=classic;html=1;rounded=0;fillColor=#f8cecc;strokeColor=#b85450;" parent="1" edge="1">
          <mxGeometry width="50" height="50" relative="1" as="geometry">
            <mxPoint x="-260" y="650" as="sourcePoint" />
            <mxPoint x="-210" y="650" as="targetPoint" />
          </mxGeometry>
        </mxCell>
        <mxCell id="r3JPUnc0IrMoOJ5R_WF7-127" value="attn+resid" style="text;html=1;strokeColor=none;fillColor=none;align=center;verticalAlign=middle;whiteSpace=wrap;rounded=0;" parent="1" vertex="1">
          <mxGeometry x="-265" y="585" width="60" height="30" as="geometry" />
        </mxCell>
        <mxCell id="r3JPUnc0IrMoOJ5R_WF7-128" value="resid" style="text;html=1;strokeColor=none;fillColor=none;align=center;verticalAlign=middle;whiteSpace=wrap;rounded=0;" parent="1" vertex="1">
          <mxGeometry x="530" y="542.5" width="60" height="30" as="geometry" />
        </mxCell>
        <mxCell id="r3JPUnc0IrMoOJ5R_WF7-129" value="resid" style="text;html=1;strokeColor=none;fillColor=none;align=center;verticalAlign=middle;whiteSpace=wrap;rounded=0;" parent="1" vertex="1">
          <mxGeometry x="-270" y="650" width="60" height="30" as="geometry" />
        </mxCell>
        <mxCell id="r3JPUnc0IrMoOJ5R_WF7-130" value="attn+resid" style="text;html=1;strokeColor=none;fillColor=none;align=center;verticalAlign=middle;whiteSpace=wrap;rounded=0;" parent="1" vertex="1">
          <mxGeometry x="10" y="650" width="60" height="30" as="geometry" />
        </mxCell>
        <mxCell id="r3JPUnc0IrMoOJ5R_WF7-131" value="ln_resid" style="text;html=1;strokeColor=none;fillColor=none;align=center;verticalAlign=middle;whiteSpace=wrap;rounded=0;" parent="1" vertex="1">
          <mxGeometry x="10" y="580" width="60" height="30" as="geometry" />
        </mxCell>
        <mxCell id="r3JPUnc0IrMoOJ5R_WF7-133" value="" style="endArrow=classic;html=1;rounded=0;dashed=1;entryX=0.987;entryY=0.813;entryDx=0;entryDy=0;entryPerimeter=0;" parent="1" source="r3JPUnc0IrMoOJ5R_WF7-127" edge="1">
          <mxGeometry width="50" height="50" relative="1" as="geometry">
            <mxPoint x="-203.83" y="614.5533333333334" as="sourcePoint" />
            <mxPoint x="-120.00000000000007" y="650" as="targetPoint" />
            <Array as="points">
              <mxPoint x="-188.83" y="621.22" />
            </Array>
          </mxGeometry>
        </mxCell>
        <mxCell id="r3JPUnc0IrMoOJ5R_WF7-134" value="attn+resid" style="text;html=1;strokeColor=none;fillColor=none;align=center;verticalAlign=middle;whiteSpace=wrap;rounded=0;" parent="1" vertex="1">
          <mxGeometry x="140" y="650" width="60" height="30" as="geometry" />
        </mxCell>
        <mxCell id="r3JPUnc0IrMoOJ5R_WF7-135" value="attn+resid" style="text;html=1;strokeColor=none;fillColor=none;align=center;verticalAlign=middle;whiteSpace=wrap;rounded=0;" parent="1" vertex="1">
          <mxGeometry x="270" y="650" width="60" height="30" as="geometry" />
        </mxCell>
        <mxCell id="r3JPUnc0IrMoOJ5R_WF7-136" value="attn+resid" style="text;html=1;strokeColor=none;fillColor=none;align=center;verticalAlign=middle;whiteSpace=wrap;rounded=0;" parent="1" vertex="1">
          <mxGeometry x="400" y="650" width="60" height="30" as="geometry" />
        </mxCell>
        <mxCell id="r3JPUnc0IrMoOJ5R_WF7-137" value="attn+resid+mlp" style="text;html=1;strokeColor=none;fillColor=none;align=center;verticalAlign=middle;whiteSpace=wrap;rounded=0;" parent="1" vertex="1">
          <mxGeometry x="554" y="600" width="60" height="30" as="geometry" />
        </mxCell>
        <mxCell id="r3JPUnc0IrMoOJ5R_WF7-138" value="" style="endArrow=classic;html=1;rounded=0;" parent="1" edge="1">
          <mxGeometry width="50" height="50" relative="1" as="geometry">
            <mxPoint x="290" y="369.83" as="sourcePoint" />
            <mxPoint x="340" y="369.83" as="targetPoint" />
          </mxGeometry>
        </mxCell>
        <mxCell id="r3JPUnc0IrMoOJ5R_WF7-139" value="" style="endArrow=classic;html=1;rounded=0;" parent="1" edge="1">
          <mxGeometry width="50" height="50" relative="1" as="geometry">
            <mxPoint x="150" y="729.5" as="sourcePoint" />
            <mxPoint x="200" y="729.5" as="targetPoint" />
          </mxGeometry>
        </mxCell>
        <mxCell id="r3JPUnc0IrMoOJ5R_WF7-140" value="logits" style="text;html=1;strokeColor=none;fillColor=none;align=center;verticalAlign=middle;whiteSpace=wrap;rounded=0;" parent="1" vertex="1">
          <mxGeometry x="280" y="340" width="60" height="30" as="geometry" />
        </mxCell>
        <mxCell id="r3JPUnc0IrMoOJ5R_WF7-141" value="logits" style="text;html=1;strokeColor=none;fillColor=none;align=center;verticalAlign=middle;whiteSpace=wrap;rounded=0;" parent="1" vertex="1">
          <mxGeometry x="150" y="700" width="60" height="30" as="geometry" />
        </mxCell>
        <mxCell id="r3JPUnc0IrMoOJ5R_WF7-144" value="more blocks (GPT2)" style="rounded=1;whiteSpace=wrap;html=1;fillColor=none;dashed=1;" parent="1" vertex="1">
          <mxGeometry x="-200" y="330" width="105" height="80" as="geometry" />
        </mxCell>
        <mxCell id="r3JPUnc0IrMoOJ5R_WF7-145" value="" style="endArrow=classic;html=1;rounded=0;fillColor=#f8cecc;strokeColor=#b85450;" parent="1" edge="1">
          <mxGeometry width="50" height="50" relative="1" as="geometry">
            <mxPoint x="-165" y="360" as="sourcePoint" />
            <mxPoint x="-165" y="360" as="targetPoint" />
          </mxGeometry>
        </mxCell>
        <mxCell id="r3JPUnc0IrMoOJ5R_WF7-146" value="more blocks" style="rounded=1;whiteSpace=wrap;html=1;fillColor=none;dashed=1;" parent="1" vertex="1">
          <mxGeometry x="620" y="590" width="105" height="80" as="geometry" />
        </mxCell>
        <mxCell id="r3JPUnc0IrMoOJ5R_WF7-149" value="&lt;span style=&quot;font-size: 11px;&quot;&gt;resid&lt;/span&gt;" style="text;html=1;strokeColor=none;fillColor=none;align=center;verticalAlign=middle;whiteSpace=wrap;rounded=0;" parent="1" vertex="1">
          <mxGeometry x="140" y="542.5" width="60" height="30" as="geometry" />
        </mxCell>
        <mxCell id="r3JPUnc0IrMoOJ5R_WF7-151" value="&lt;span style=&quot;font-size: 11px;&quot;&gt;resid&lt;/span&gt;" style="text;html=1;strokeColor=none;fillColor=none;align=center;verticalAlign=middle;whiteSpace=wrap;rounded=0;" parent="1" vertex="1">
          <mxGeometry x="-120" y="500" width="60" height="30" as="geometry" />
        </mxCell>
        <mxCell id="r3JPUnc0IrMoOJ5R_WF7-152" value="&lt;span style=&quot;font-size: 11px;&quot;&gt;resid&lt;/span&gt;" style="text;html=1;strokeColor=none;fillColor=none;align=center;verticalAlign=middle;whiteSpace=wrap;rounded=0;" parent="1" vertex="1">
          <mxGeometry x="270" y="542.5" width="60" height="30" as="geometry" />
        </mxCell>
        <mxCell id="r3JPUnc0IrMoOJ5R_WF7-153" value="&lt;span style=&quot;font-size: 11px;&quot;&gt;ln_resid&lt;/span&gt;" style="text;html=1;strokeColor=none;fillColor=none;align=center;verticalAlign=middle;whiteSpace=wrap;rounded=0;" parent="1" vertex="1">
          <mxGeometry x="140" y="482.5" width="60" height="30" as="geometry" />
        </mxCell>
        <mxCell id="r3JPUnc0IrMoOJ5R_WF7-155" value="&lt;span style=&quot;font-size: 11px;&quot;&gt;resid&lt;/span&gt;" style="text;html=1;strokeColor=none;fillColor=none;align=center;verticalAlign=middle;whiteSpace=wrap;rounded=0;" parent="1" vertex="1">
          <mxGeometry x="130" y="140" width="60" height="30" as="geometry" />
        </mxCell>
        <mxCell id="r3JPUnc0IrMoOJ5R_WF7-156" value="&lt;span style=&quot;font-size: 11px;&quot;&gt;resid&lt;/span&gt;" style="text;html=1;strokeColor=none;fillColor=none;align=center;verticalAlign=middle;whiteSpace=wrap;rounded=0;" parent="1" vertex="1">
          <mxGeometry x="390" y="185" width="60" height="30" as="geometry" />
        </mxCell>
        <mxCell id="r3JPUnc0IrMoOJ5R_WF7-158" value="&lt;span style=&quot;font-size: 11px;&quot;&gt;resid&lt;/span&gt;" style="text;html=1;strokeColor=none;fillColor=none;align=center;verticalAlign=middle;whiteSpace=wrap;rounded=0;" parent="1" vertex="1">
          <mxGeometry x="520" y="185" width="60" height="30" as="geometry" />
        </mxCell>
        <mxCell id="r3JPUnc0IrMoOJ5R_WF7-161" value="" style="endArrow=classic;html=1;rounded=0;fillColor=#f8cecc;strokeColor=#0D0D0D;" parent="1" edge="1">
          <mxGeometry width="50" height="50" relative="1" as="geometry">
            <mxPoint x="400" y="155" as="sourcePoint" />
            <mxPoint x="440" y="155" as="targetPoint" />
          </mxGeometry>
        </mxCell>
        <mxCell id="r3JPUnc0IrMoOJ5R_WF7-162" value="&lt;span style=&quot;font-size: 11px;&quot;&gt;ln_resid&lt;/span&gt;" style="text;html=1;strokeColor=none;fillColor=none;align=center;verticalAlign=middle;whiteSpace=wrap;rounded=0;" parent="1" vertex="1">
          <mxGeometry x="390" y="125" width="60" height="30" as="geometry" />
        </mxCell>
        <mxCell id="r3JPUnc0IrMoOJ5R_WF7-163" value="&lt;span style=&quot;font-size: 11px;&quot;&gt;attn_output&lt;/span&gt;" style="text;html=1;strokeColor=none;fillColor=none;align=center;verticalAlign=middle;whiteSpace=wrap;rounded=0;" parent="1" vertex="1">
          <mxGeometry x="660" y="122.5" width="60" height="30" as="geometry" />
        </mxCell>
        <mxCell id="r3JPUnc0IrMoOJ5R_WF7-164" value="&lt;span style=&quot;font-size: 11px;&quot;&gt;resid&lt;/span&gt;" style="text;html=1;strokeColor=none;fillColor=none;align=center;verticalAlign=middle;whiteSpace=wrap;rounded=0;" parent="1" vertex="1">
          <mxGeometry x="780" y="140" width="60" height="30" as="geometry" />
        </mxCell>
        <mxCell id="r3JPUnc0IrMoOJ5R_WF7-166" value="" style="endArrow=classic;html=1;rounded=0;fillColor=#f8cecc;strokeColor=#b85450;" parent="1" edge="1">
          <mxGeometry width="50" height="50" relative="1" as="geometry">
            <mxPoint x="-195" y="359.5" as="sourcePoint" />
            <mxPoint x="-195.60344827586187" y="360" as="targetPoint" />
          </mxGeometry>
        </mxCell>
        <mxCell id="r3JPUnc0IrMoOJ5R_WF7-169" value="" style="endArrow=classic;html=1;rounded=0;fillColor=#f8cecc;strokeColor=#b85450;" parent="1" target="r3JPUnc0IrMoOJ5R_WF7-168" edge="1">
          <mxGeometry width="50" height="50" relative="1" as="geometry">
            <mxPoint x="-255" y="730" as="sourcePoint" />
            <mxPoint x="-205" y="730" as="targetPoint" />
          </mxGeometry>
        </mxCell>
        <mxCell id="r3JPUnc0IrMoOJ5R_WF7-168" value="&lt;span style=&quot;font-size: 11px;&quot;&gt;resid&lt;/span&gt;" style="text;html=1;strokeColor=none;fillColor=none;align=center;verticalAlign=middle;whiteSpace=wrap;rounded=0;" parent="1" vertex="1">
          <mxGeometry x="-260" y="700" width="60" height="30" as="geometry" />
        </mxCell>
        <mxCell id="r3JPUnc0IrMoOJ5R_WF7-170" value="&lt;span style=&quot;font-size: 11px;&quot;&gt;resid&lt;/span&gt;" style="text;html=1;strokeColor=none;fillColor=none;align=center;verticalAlign=middle;whiteSpace=wrap;rounded=0;" parent="1" vertex="1">
          <mxGeometry x="-135" y="285" width="60" height="30" as="geometry" />
        </mxCell>
        <mxCell id="r3JPUnc0IrMoOJ5R_WF7-172" value="&lt;span style=&quot;font-size: 11px;&quot;&gt;resid&lt;/span&gt;" style="text;html=1;strokeColor=none;fillColor=none;align=center;verticalAlign=middle;whiteSpace=wrap;rounded=0;" parent="1" vertex="1">
          <mxGeometry x="-100" y="330" width="60" height="30" as="geometry" />
        </mxCell>
        <mxCell id="r3JPUnc0IrMoOJ5R_WF7-173" value="" style="endArrow=classic;html=1;rounded=0;fillColor=#f8cecc;strokeColor=#b85450;" parent="1" edge="1">
          <mxGeometry width="50" height="50" relative="1" as="geometry">
            <mxPoint x="-95" y="370" as="sourcePoint" />
            <mxPoint x="-45" y="370" as="targetPoint" />
          </mxGeometry>
        </mxCell>
        <mxCell id="r3JPUnc0IrMoOJ5R_WF7-175" value="" style="endArrow=classic;html=1;rounded=0;fillColor=#f8cecc;strokeColor=#b85450;" parent="1" edge="1">
          <mxGeometry width="50" height="50" relative="1" as="geometry">
            <mxPoint x="-255" y="729" as="sourcePoint" />
            <mxPoint x="-205" y="729" as="targetPoint" />
          </mxGeometry>
        </mxCell>
        <mxCell id="r3JPUnc0IrMoOJ5R_WF7-179" value="&lt;span style=&quot;font-size: 11px;&quot;&gt;resid&lt;/span&gt;" style="text;html=1;strokeColor=none;fillColor=none;align=center;verticalAlign=middle;whiteSpace=wrap;rounded=0;" parent="1" vertex="1">
          <mxGeometry x="5" y="285" width="60" height="30" as="geometry" />
        </mxCell>
        <mxCell id="r3JPUnc0IrMoOJ5R_WF7-180" value="&lt;span style=&quot;font-size: 11px;&quot;&gt;resid&lt;/span&gt;" style="text;html=1;strokeColor=none;fillColor=none;align=center;verticalAlign=middle;whiteSpace=wrap;rounded=0;" parent="1" vertex="1">
          <mxGeometry x="135" y="285" width="60" height="30" as="geometry" />
        </mxCell>
        <mxCell id="r3JPUnc0IrMoOJ5R_WF7-183" value="&lt;span style=&quot;font-size: 11px;&quot;&gt;resid&lt;/span&gt;" style="text;html=1;strokeColor=none;fillColor=none;align=center;verticalAlign=middle;whiteSpace=wrap;rounded=0;" parent="1" vertex="1">
          <mxGeometry x="265" y="285" width="60" height="30" as="geometry" />
        </mxCell>
        <mxCell id="r3JPUnc0IrMoOJ5R_WF7-184" value="&lt;span style=&quot;font-size: 11px;&quot;&gt;resid&lt;/span&gt;" style="text;html=1;strokeColor=none;fillColor=none;align=center;verticalAlign=middle;whiteSpace=wrap;rounded=0;" parent="1" vertex="1">
          <mxGeometry x="395" y="285" width="60" height="30" as="geometry" />
        </mxCell>
        <mxCell id="r3JPUnc0IrMoOJ5R_WF7-185" value="&lt;span style=&quot;font-size: 11px;&quot;&gt;resid&lt;/span&gt;" style="text;html=1;strokeColor=none;fillColor=none;align=center;verticalAlign=middle;whiteSpace=wrap;rounded=0;" parent="1" vertex="1">
          <mxGeometry x="519" y="235" width="60" height="30" as="geometry" />
        </mxCell>
        <mxCell id="r3JPUnc0IrMoOJ5R_WF7-186" value="ln_resid" style="text;html=1;strokeColor=none;fillColor=none;align=center;verticalAlign=middle;whiteSpace=wrap;rounded=0;" parent="1" vertex="1">
          <mxGeometry x="5" y="215" width="60" height="30" as="geometry" />
        </mxCell>
        <mxCell id="mQcDiA4xr1033m4KgGiy-1" value="attn_out" style="rounded=1;whiteSpace=wrap;html=1;" parent="1" vertex="1">
          <mxGeometry x="320" y="497.5" width="90" height="60" as="geometry" />
        </mxCell>
        <mxCell id="mQcDiA4xr1033m4KgGiy-2" value="" style="endArrow=classic;html=1;rounded=0;fillColor=#f8cecc;strokeColor=#b85450;" parent="1" edge="1">
          <mxGeometry width="50" height="50" relative="1" as="geometry">
            <mxPoint x="280" y="547.25" as="sourcePoint" />
            <mxPoint x="320" y="547.25" as="targetPoint" />
          </mxGeometry>
        </mxCell>
        <mxCell id="mQcDiA4xr1033m4KgGiy-4" value="" style="endArrow=classic;html=1;rounded=0;" parent="1" edge="1">
          <mxGeometry width="50" height="50" relative="1" as="geometry">
            <mxPoint x="280" y="527.25" as="sourcePoint" />
            <mxPoint x="320" y="527.25" as="targetPoint" />
          </mxGeometry>
        </mxCell>
        <mxCell id="mQcDiA4xr1033m4KgGiy-5" value="" style="endArrow=classic;html=1;rounded=0;" parent="1" edge="1">
          <mxGeometry width="50" height="50" relative="1" as="geometry">
            <mxPoint x="280" y="517.5" as="sourcePoint" />
            <mxPoint x="320" y="517.5" as="targetPoint" />
          </mxGeometry>
        </mxCell>
        <mxCell id="mQcDiA4xr1033m4KgGiy-6" value="" style="endArrow=classic;html=1;rounded=0;" parent="1" edge="1">
          <mxGeometry width="50" height="50" relative="1" as="geometry">
            <mxPoint x="280" y="507.5" as="sourcePoint" />
            <mxPoint x="320" y="507.5" as="targetPoint" />
          </mxGeometry>
        </mxCell>
        <mxCell id="mQcDiA4xr1033m4KgGiy-7" value="&lt;span style=&quot;font-size: 11px;&quot;&gt;q, k, v&lt;/span&gt;" style="text;html=1;strokeColor=none;fillColor=none;align=center;verticalAlign=middle;whiteSpace=wrap;rounded=0;" parent="1" vertex="1">
          <mxGeometry x="270" y="482.5" width="60" height="30" as="geometry" />
        </mxCell>
        <mxCell id="mQcDiA4xr1033m4KgGiy-8" value="&lt;span style=&quot;font-size: 11px;&quot;&gt;attn_output&lt;/span&gt;" style="text;html=1;strokeColor=none;fillColor=none;align=center;verticalAlign=middle;whiteSpace=wrap;rounded=0;" parent="1" vertex="1">
          <mxGeometry x="400" y="477.5" width="60" height="30" as="geometry" />
        </mxCell>
        <mxCell id="mQcDiA4xr1033m4KgGiy-14" value="attn_out" style="rounded=1;whiteSpace=wrap;html=1;" parent="1" vertex="1">
          <mxGeometry x="570" y="140" width="90" height="60" as="geometry" />
        </mxCell>
        <mxCell id="mQcDiA4xr1033m4KgGiy-16" value="" style="endArrow=classic;html=1;rounded=0;fillColor=#f8cecc;strokeColor=#b85450;" parent="1" edge="1">
          <mxGeometry width="50" height="50" relative="1" as="geometry">
            <mxPoint x="530" y="189.75" as="sourcePoint" />
            <mxPoint x="570" y="189.75" as="targetPoint" />
          </mxGeometry>
        </mxCell>
        <mxCell id="mQcDiA4xr1033m4KgGiy-19" value="" style="endArrow=classic;html=1;rounded=0;" parent="1" edge="1">
          <mxGeometry width="50" height="50" relative="1" as="geometry">
            <mxPoint x="530" y="169.75" as="sourcePoint" />
            <mxPoint x="570" y="169.75" as="targetPoint" />
          </mxGeometry>
        </mxCell>
        <mxCell id="mQcDiA4xr1033m4KgGiy-20" value="" style="endArrow=classic;html=1;rounded=0;" parent="1" edge="1">
          <mxGeometry width="50" height="50" relative="1" as="geometry">
            <mxPoint x="530" y="160" as="sourcePoint" />
            <mxPoint x="570" y="160" as="targetPoint" />
          </mxGeometry>
        </mxCell>
        <mxCell id="mQcDiA4xr1033m4KgGiy-21" value="" style="endArrow=classic;html=1;rounded=0;" parent="1" edge="1">
          <mxGeometry width="50" height="50" relative="1" as="geometry">
            <mxPoint x="530" y="150" as="sourcePoint" />
            <mxPoint x="570" y="150" as="targetPoint" />
          </mxGeometry>
        </mxCell>
        <mxCell id="mQcDiA4xr1033m4KgGiy-22" value="&lt;span style=&quot;font-size: 11px;&quot;&gt;q, k, v&lt;/span&gt;" style="text;html=1;strokeColor=none;fillColor=none;align=center;verticalAlign=middle;whiteSpace=wrap;rounded=0;" parent="1" vertex="1">
          <mxGeometry x="530" y="122.5" width="60" height="30" as="geometry" />
        </mxCell>
        <mxCell id="uitrrkNv9NHPxQHEHJFQ-1" value="&lt;span style=&quot;font-size: 11px;&quot;&gt;resid&lt;/span&gt;" style="text;html=1;strokeColor=none;fillColor=none;align=center;verticalAlign=middle;whiteSpace=wrap;rounded=0;" parent="1" vertex="1">
          <mxGeometry x="650" y="185" width="60" height="30" as="geometry" />
        </mxCell>
        <mxCell id="uitrrkNv9NHPxQHEHJFQ-2" value="&lt;span style=&quot;font-size: 11px;&quot;&gt;resid&lt;/span&gt;" style="text;html=1;strokeColor=none;fillColor=none;align=center;verticalAlign=middle;whiteSpace=wrap;rounded=0;" parent="1" vertex="1">
          <mxGeometry x="400" y="542.5" width="60" height="30" as="geometry" />
        </mxCell>
        <mxCell id="dL9lyLk3jGsbPo3Z24HX-3" value="" style="endArrow=classic;html=1;rounded=0;fillColor=#f8cecc;strokeColor=#b85450;" edge="1" parent="1">
          <mxGeometry width="50" height="50" relative="1" as="geometry">
            <mxPoint x="-250" y="371" as="sourcePoint" />
            <mxPoint x="-200" y="370.5" as="targetPoint" />
          </mxGeometry>
        </mxCell>
        <mxCell id="dL9lyLk3jGsbPo3Z24HX-4" value="" style="endArrow=classic;html=1;rounded=0;fillColor=#f8cecc;strokeColor=#0D0D0D;exitX=0.161;exitY=1;exitDx=0;exitDy=0;exitPerimeter=0;" edge="1" parent="1" source="dL9lyLk3jGsbPo3Z24HX-5">
          <mxGeometry width="50" height="50" relative="1" as="geometry">
            <mxPoint x="-115" y="245" as="sourcePoint" />
            <mxPoint x="-75" y="245" as="targetPoint" />
          </mxGeometry>
        </mxCell>
        <mxCell id="dL9lyLk3jGsbPo3Z24HX-5" value="variance" style="text;html=1;strokeColor=none;fillColor=none;align=center;verticalAlign=middle;whiteSpace=wrap;rounded=0;" vertex="1" parent="1">
          <mxGeometry x="-130" y="215" width="60" height="30" as="geometry" />
        </mxCell>
        <mxCell id="dL9lyLk3jGsbPo3Z24HX-6" value="ln2" style="rounded=1;whiteSpace=wrap;html=1;" vertex="1" parent="1">
          <mxGeometry x="-210" y="235" width="90" height="60" as="geometry" />
        </mxCell>
        <mxCell id="dL9lyLk3jGsbPo3Z24HX-7" value="" style="endArrow=classic;html=1;rounded=0;fillColor=#f8cecc;strokeColor=#b85450;" edge="1" parent="1">
          <mxGeometry width="50" height="50" relative="1" as="geometry">
            <mxPoint x="-260" y="265.5" as="sourcePoint" />
            <mxPoint x="-210" y="265" as="targetPoint" />
          </mxGeometry>
        </mxCell>
        <mxCell id="dL9lyLk3jGsbPo3Z24HX-8" value="&lt;span style=&quot;font-size: 11px;&quot;&gt;resid&lt;/span&gt;" style="text;html=1;strokeColor=none;fillColor=none;align=center;verticalAlign=middle;whiteSpace=wrap;rounded=0;" vertex="1" parent="1">
          <mxGeometry x="-265" y="235" width="60" height="30" as="geometry" />
        </mxCell>
        <mxCell id="dL9lyLk3jGsbPo3Z24HX-9" value="ln_final_out" style="rounded=1;whiteSpace=wrap;html=1;" vertex="1" parent="1">
          <mxGeometry x="75" y="340" width="90" height="60" as="geometry" />
        </mxCell>
        <mxCell id="dL9lyLk3jGsbPo3Z24HX-10" value="" style="endArrow=classic;html=1;rounded=0;exitX=1;exitY=0.5;exitDx=0;exitDy=0;fillColor=#f8cecc;strokeColor=#b85450;" edge="1" parent="1" source="dL9lyLk3jGsbPo3Z24HX-9">
          <mxGeometry width="50" height="50" relative="1" as="geometry">
            <mxPoint x="170" y="370" as="sourcePoint" />
            <mxPoint x="200" y="369.5" as="targetPoint" />
          </mxGeometry>
        </mxCell>
        <mxCell id="dL9lyLk3jGsbPo3Z24HX-13" value="" style="endArrow=classic;html=1;rounded=0;fillColor=#f8cecc;strokeColor=#0D0D0D;entryX=0;entryY=0.25;entryDx=0;entryDy=0;" edge="1" parent="1" target="dL9lyLk3jGsbPo3Z24HX-9">
          <mxGeometry width="50" height="50" relative="1" as="geometry">
            <mxPoint x="45" y="354.83" as="sourcePoint" />
            <mxPoint x="80" y="355" as="targetPoint" />
          </mxGeometry>
        </mxCell>
        <mxCell id="dL9lyLk3jGsbPo3Z24HX-14" value="variance" style="text;html=1;strokeColor=none;fillColor=none;align=center;verticalAlign=middle;whiteSpace=wrap;rounded=0;" vertex="1" parent="1">
          <mxGeometry x="30" y="315" width="60" height="30" as="geometry" />
        </mxCell>
        <mxCell id="dL9lyLk3jGsbPo3Z24HX-15" value="ln1" style="rounded=1;whiteSpace=wrap;html=1;" vertex="1" parent="1">
          <mxGeometry x="180" y="140" width="90" height="60" as="geometry" />
        </mxCell>
        <mxCell id="dL9lyLk3jGsbPo3Z24HX-16" value="" style="endArrow=classic;html=1;rounded=0;fillColor=#f8cecc;strokeColor=#0D0D0D;" edge="1" parent="1">
          <mxGeometry width="50" height="50" relative="1" as="geometry">
            <mxPoint x="270" y="152.17000000000002" as="sourcePoint" />
            <mxPoint x="310" y="152.17000000000002" as="targetPoint" />
          </mxGeometry>
        </mxCell>
        <mxCell id="dL9lyLk3jGsbPo3Z24HX-17" value="" style="endArrow=classic;html=1;rounded=0;fillColor=#f8cecc;strokeColor=#b85450;" edge="1" parent="1">
          <mxGeometry width="50" height="50" relative="1" as="geometry">
            <mxPoint x="270" y="189.67" as="sourcePoint" />
            <mxPoint x="310" y="189.67" as="targetPoint" />
          </mxGeometry>
        </mxCell>
        <mxCell id="dL9lyLk3jGsbPo3Z24HX-18" value="&lt;span style=&quot;font-size: 11px;&quot;&gt;resid&lt;/span&gt;" style="text;html=1;strokeColor=none;fillColor=none;align=center;verticalAlign=middle;whiteSpace=wrap;rounded=0;" vertex="1" parent="1">
          <mxGeometry x="260" y="185" width="60" height="25" as="geometry" />
        </mxCell>
        <mxCell id="dL9lyLk3jGsbPo3Z24HX-19" value="variance" style="text;html=1;strokeColor=none;fillColor=none;align=center;verticalAlign=middle;whiteSpace=wrap;rounded=0;" vertex="1" parent="1">
          <mxGeometry x="260" y="122.5" width="60" height="30" as="geometry" />
        </mxCell>
        <mxCell id="dL9lyLk3jGsbPo3Z24HX-20" value="ln1" style="rounded=1;whiteSpace=wrap;html=1;" vertex="1" parent="1">
          <mxGeometry x="-70" y="497.5" width="90" height="60" as="geometry" />
        </mxCell>
        <mxCell id="dL9lyLk3jGsbPo3Z24HX-21" value="" style="endArrow=classic;html=1;rounded=0;fillColor=#f8cecc;strokeColor=#0D0D0D;" edge="1" parent="1">
          <mxGeometry width="50" height="50" relative="1" as="geometry">
            <mxPoint x="20" y="512.5" as="sourcePoint" />
            <mxPoint x="60" y="512.5" as="targetPoint" />
          </mxGeometry>
        </mxCell>
        <mxCell id="dL9lyLk3jGsbPo3Z24HX-22" value="" style="endArrow=classic;html=1;rounded=0;fillColor=#f8cecc;strokeColor=#b85450;" edge="1" parent="1">
          <mxGeometry width="50" height="50" relative="1" as="geometry">
            <mxPoint x="20" y="547.5" as="sourcePoint" />
            <mxPoint x="60" y="547.5" as="targetPoint" />
          </mxGeometry>
        </mxCell>
        <mxCell id="dL9lyLk3jGsbPo3Z24HX-23" value="&lt;span style=&quot;font-size: 11px;&quot;&gt;resid&lt;/span&gt;" style="text;html=1;strokeColor=none;fillColor=none;align=center;verticalAlign=middle;whiteSpace=wrap;rounded=0;" vertex="1" parent="1">
          <mxGeometry x="10" y="542.5" width="60" height="30" as="geometry" />
        </mxCell>
        <mxCell id="dL9lyLk3jGsbPo3Z24HX-24" value="&lt;span style=&quot;font-size: 11px;&quot;&gt;variance&lt;/span&gt;" style="text;html=1;strokeColor=none;fillColor=none;align=center;verticalAlign=middle;whiteSpace=wrap;rounded=0;" vertex="1" parent="1">
          <mxGeometry x="10" y="482.5" width="60" height="30" as="geometry" />
        </mxCell>
        <mxCell id="dL9lyLk3jGsbPo3Z24HX-25" value="ln2_out" style="rounded=1;whiteSpace=wrap;html=1;" vertex="1" parent="1">
          <mxGeometry x="-70" y="600" width="90" height="60" as="geometry" />
        </mxCell>
        <mxCell id="dL9lyLk3jGsbPo3Z24HX-26" value="" style="endArrow=classic;html=1;rounded=0;fillColor=#f8cecc;strokeColor=#0D0D0D;" edge="1" parent="1">
          <mxGeometry width="50" height="50" relative="1" as="geometry">
            <mxPoint x="-120" y="609.67" as="sourcePoint" />
            <mxPoint x="-70" y="609.67" as="targetPoint" />
          </mxGeometry>
        </mxCell>
        <mxCell id="dL9lyLk3jGsbPo3Z24HX-27" value="" style="endArrow=classic;html=1;rounded=0;fillColor=#f8cecc;strokeColor=#b85450;" edge="1" parent="1">
          <mxGeometry width="50" height="50" relative="1" as="geometry">
            <mxPoint x="-120" y="650" as="sourcePoint" />
            <mxPoint x="-70" y="650" as="targetPoint" />
          </mxGeometry>
        </mxCell>
        <mxCell id="dL9lyLk3jGsbPo3Z24HX-30" value="&lt;span style=&quot;font-size: 11px;&quot;&gt;variance&lt;/span&gt;" style="text;html=1;strokeColor=none;fillColor=none;align=center;verticalAlign=middle;whiteSpace=wrap;rounded=0;" vertex="1" parent="1">
          <mxGeometry x="-130" y="580" width="60" height="30" as="geometry" />
        </mxCell>
        <mxCell id="dL9lyLk3jGsbPo3Z24HX-31" value="" style="endArrow=classic;html=1;rounded=0;fillColor=#f8cecc;strokeColor=#0D0D0D;" edge="1" parent="1">
          <mxGeometry width="50" height="50" relative="1" as="geometry">
            <mxPoint x="-120" y="629.67" as="sourcePoint" />
            <mxPoint x="-70" y="629.67" as="targetPoint" />
          </mxGeometry>
        </mxCell>
        <mxCell id="dL9lyLk3jGsbPo3Z24HX-32" value="" style="endArrow=classic;html=1;rounded=0;dashed=1;entryX=1;entryY=0.5;entryDx=0;entryDy=0;" edge="1" parent="1" target="r3JPUnc0IrMoOJ5R_WF7-116">
          <mxGeometry width="50" height="50" relative="1" as="geometry">
            <mxPoint x="-210" y="650" as="sourcePoint" />
            <mxPoint x="-125.00000000000007" y="686" as="targetPoint" />
            <Array as="points" />
          </mxGeometry>
        </mxCell>
        <mxCell id="dL9lyLk3jGsbPo3Z24HX-33" value="attn+resid" style="text;html=1;strokeColor=none;fillColor=none;align=center;verticalAlign=middle;whiteSpace=wrap;rounded=0;" vertex="1" parent="1">
          <mxGeometry x="-130" y="650" width="60" height="30" as="geometry" />
        </mxCell>
        <mxCell id="dL9lyLk3jGsbPo3Z24HX-34" value="resid" style="text;html=1;strokeColor=none;fillColor=none;align=center;verticalAlign=middle;whiteSpace=wrap;rounded=0;" vertex="1" parent="1">
          <mxGeometry x="-130" y="620" width="60" height="30" as="geometry" />
        </mxCell>
        <mxCell id="dL9lyLk3jGsbPo3Z24HX-35" value="ln_final_out" style="rounded=1;whiteSpace=wrap;html=1;" vertex="1" parent="1">
          <mxGeometry x="-65" y="700" width="90" height="60" as="geometry" />
        </mxCell>
        <mxCell id="dL9lyLk3jGsbPo3Z24HX-36" value="" style="endArrow=classic;html=1;rounded=0;exitX=1;exitY=0.5;exitDx=0;exitDy=0;fillColor=#f8cecc;strokeColor=#b85450;" edge="1" parent="1" source="dL9lyLk3jGsbPo3Z24HX-35">
          <mxGeometry width="50" height="50" relative="1" as="geometry">
            <mxPoint x="30" y="730" as="sourcePoint" />
            <mxPoint x="60" y="729.5" as="targetPoint" />
          </mxGeometry>
        </mxCell>
        <mxCell id="dL9lyLk3jGsbPo3Z24HX-40" value="" style="endArrow=classic;html=1;rounded=0;fillColor=#f8cecc;strokeColor=#b85450;" edge="1" parent="1">
          <mxGeometry width="50" height="50" relative="1" as="geometry">
            <mxPoint x="-115" y="750" as="sourcePoint" />
            <mxPoint x="-65" y="750" as="targetPoint" />
          </mxGeometry>
        </mxCell>
        <mxCell id="dL9lyLk3jGsbPo3Z24HX-41" value="&lt;span style=&quot;font-size: 11px;&quot;&gt;variance&lt;/span&gt;" style="text;html=1;strokeColor=none;fillColor=none;align=center;verticalAlign=middle;whiteSpace=wrap;rounded=0;" vertex="1" parent="1">
          <mxGeometry x="-120" y="680" width="60" height="30" as="geometry" />
        </mxCell>
        <mxCell id="dL9lyLk3jGsbPo3Z24HX-42" value="" style="endArrow=classic;html=1;rounded=0;fillColor=#f8cecc;strokeColor=#0D0D0D;entryX=-0.007;entryY=0.161;entryDx=0;entryDy=0;entryPerimeter=0;" edge="1" parent="1" target="dL9lyLk3jGsbPo3Z24HX-35">
          <mxGeometry width="50" height="50" relative="1" as="geometry">
            <mxPoint x="-115" y="710" as="sourcePoint" />
            <mxPoint x="-75" y="710" as="targetPoint" />
          </mxGeometry>
        </mxCell>
        <mxCell id="dL9lyLk3jGsbPo3Z24HX-44" value="&lt;span style=&quot;font-size: 11px;&quot;&gt;resid&lt;/span&gt;" style="text;html=1;strokeColor=none;fillColor=none;align=center;verticalAlign=middle;whiteSpace=wrap;rounded=0;" vertex="1" parent="1">
          <mxGeometry x="-125" y="740" width="60" height="30" as="geometry" />
        </mxCell>
        <mxCell id="dL9lyLk3jGsbPo3Z24HX-45" value="&lt;span style=&quot;font-size: 11px;&quot;&gt;resid&lt;/span&gt;" style="text;html=1;strokeColor=none;fillColor=none;align=center;verticalAlign=middle;whiteSpace=wrap;rounded=0;" vertex="1" parent="1">
          <mxGeometry x="30" y="380" width="60" height="30" as="geometry" />
        </mxCell>
        <mxCell id="dL9lyLk3jGsbPo3Z24HX-46" value="ln_resid" style="text;html=1;strokeColor=none;fillColor=none;align=center;verticalAlign=middle;whiteSpace=wrap;rounded=0;" vertex="1" parent="1">
          <mxGeometry x="150" y="320" width="60" height="30" as="geometry" />
        </mxCell>
        <mxCell id="dL9lyLk3jGsbPo3Z24HX-47" value="ln_resid" style="text;html=1;strokeColor=none;fillColor=none;align=center;verticalAlign=middle;whiteSpace=wrap;rounded=0;" vertex="1" parent="1">
          <mxGeometry x="10" y="680" width="60" height="30" as="geometry" />
        </mxCell>
      </root>
    </mxGraphModel>
  </diagram>
</mxfile>
